<?xml version="1.0" standalone="no"?>
<!DOCTYPE svg PUBLIC "-//W3C//DTD SVG 20010904//EN"
 "http://www.w3.org/TR/2001/REC-SVG-20010904/DTD/svg10.dtd">
<svg version="1.0" xmlns="http://www.w3.org/2000/svg"
 width="200.000000pt" height="200.000000pt" viewBox="0 0 200.000000 200.000000"
 preserveAspectRatio="xMidYMid meet">

<g transform="translate(0.000000,200.000000) scale(0.100000,-0.100000)"
fill="#000000" stroke="none">
<path d="M748 1724 c-4 -3 2 -25 12 -47 61 -140 72 -159 81 -150 6 6 -4 40
-29 97 -40 90 -54 111 -64 100z"/>
<path d="M1020 1608 c0 -86 15 -80 24 10 5 51 3 62 -9 62 -12 0 -15 -15 -15
-72z"/>
<path d="M1265 1629 c-38 -73 -46 -97 -35 -104 9 -5 60 85 74 133 13 42 -13
23 -39 -29z"/>
<path d="M580 1567 c0 -19 110 -101 121 -90 6 6 -12 27 -50 56 -64 50 -71 54
-71 34z"/>
<path d="M1401 1531 c-39 -46 -50 -71 -33 -71 7 0 81 83 96 108 4 7 2 12 -7
12 -9 0 -34 -22 -56 -49z"/>
<path d="M380 1420 c0 -17 181 -103 193 -91 6 6 -21 25 -82 55 -93 47 -111 53
-111 36z"/>
<path d="M1567 1384 c-48 -24 -85 -49 -82 -54 9 -14 195 72 195 90 0 17 -23
10 -113 -36z"/>
<path d="M790 1390 c-101 -18 -180 -109 -180 -208 0 -93 63 -199 199 -332 129
-128 162 -152 206 -152 49 0 98 35 225 162 174 173 225 303 166 425 -36 73
-91 107 -174 107 -69 1 -116 -18 -171 -68 l-42 -37 -37 35 c-61 59 -122 80
-192 68z m106 -59 c23 -10 53 -34 68 -53 l26 -35 -25 -56 c-28 -60 -41 -140
-31 -181 16 -66 91 -88 135 -42 37 39 39 101 6 203 l-29 87 43 38 c93 81 216
75 272 -15 16 -25 19 -45 17 -97 -4 -80 -29 -133 -103 -223 -64 -77 -227 -217
-254 -217 -52 0 -280 221 -329 319 -75 151 -13 287 133 290 17 0 49 -8 71 -18z
m143 -193 c26 -94 -1 -184 -44 -148 -14 12 -16 26 -12 80 4 65 24 123 37 115
4 -2 13 -24 19 -47z"/>
<path d="M417 1154 c-18 -18 -2 -24 64 -24 52 0 70 3 67 13 -5 13 -119 23
-131 11z"/>
<path d="M1517 1154 c-18 -18 -2 -24 64 -24 52 0 70 3 67 13 -5 13 -119 23
-131 11z"/>
<path d="M473 917 c-67 -28 -91 -47 -61 -47 28 0 148 54 148 67 0 17 -3 17
-87 -20z"/>
<path d="M1495 940 c-7 -11 92 -58 140 -67 48 -9 17 15 -62 48 -78 34 -70 32
-78 19z"/>
<path d="M547 767 c-45 -40 -57 -57 -38 -57 13 0 111 80 111 91 0 19 -27 7
-73 -34z"/>
<path d="M1440 801 c0 -12 95 -91 109 -91 23 0 9 20 -40 59 -52 41 -69 49 -69
32z"/>
<path d="M656 638 c-59 -69 -43 -88 18 -22 43 47 57 74 37 74 -5 0 -30 -24
-55 -52z"/>
<path d="M1376 681 c-6 -9 9 -31 46 -68 31 -30 58 -51 61 -45 4 5 -17 36 -46
68 -39 42 -56 54 -61 45z"/>
<path d="M802 557 c-35 -79 -37 -87 -21 -87 8 0 79 139 79 156 0 2 -6 4 -12 4
-7 0 -28 -33 -46 -73z"/>
<path d="M1230 624 c0 -22 85 -194 96 -194 8 0 14 2 14 4 0 17 -91 196 -99
196 -6 0 -11 -3 -11 -6z"/>
<path d="M1039 555 c-1 -30 -2 -60 -3 -67 -1 -6 5 -13 12 -15 9 -4 12 14 12
66 0 84 -19 98 -21 16z"/>
<path d="M851 347 c-37 -18 -59 -65 -73 -149 -10 -67 -9 -80 5 -101 19 -30 62
-41 117 -32 71 12 97 57 117 202 5 35 2 45 -20 67 -21 21 -36 26 -74 26 -26 0
-59 -6 -72 -13z m81 -48 c17 -9 19 -17 13 -57 -11 -80 -24 -111 -51 -118 -54
-14 -64 10 -43 106 7 31 19 56 32 65 26 18 23 18 49 4z"/>
<path d="M1100 333 c-20 -18 -33 -41 -37 -65 l-6 -38 37 0 c32 0 36 3 36 25 0
34 41 61 69 45 45 -24 18 -65 -75 -114 -49 -27 -84 -68 -84 -100 0 -14 15 -16
104 -16 103 0 104 0 108 25 5 24 3 25 -48 25 -30 0 -54 4 -54 10 0 5 17 18 38
29 53 27 92 72 99 114 4 29 1 40 -20 61 -22 22 -35 26 -81 26 -47 0 -61 -4
-86 -27z"/>
</g>
</svg>
